<?xml version="1.0" encoding="iso-8859-1"?>
<!-- Generator: Adobe Illustrator 19.0.0, SVG Export Plug-In . SVG Version: 6.00 Build 0)  -->
<svg version="1.1" id="Layer_1" xmlns="http://www.w3.org/2000/svg" xmlns:xlink="http://www.w3.org/1999/xlink" x="0px" y="0px"
	 viewBox="0 0 496 496" style="enable-background:new 0 0 496 496;" xml:space="preserve">
<path style="fill:#359846;" d="M496,369.6c0,27.2-21.6,46.4-48,46.4H48c-26.4,0-48-19.2-48-46.4V126.4C0,99.2,21.6,80,48,80h400
	c26.4,0,48,19.2,48,46.4V369.6z"/>
<path style="fill:#1E7C2B;" d="M48,80h400c26.4,0,48,19.2,48,46.4v243.2c0,27.2-20.8,46.4-47.2,46.4"/>
<g>
	<path style="fill:#107517;" d="M496,368.8c0,29.6-21.6,47.2-48,47.2H48c-26.4,0-48-20.8-48-48"/>
	<path style="fill:#107517;" d="M48,80h400c26.4,0,48,19.2,48,46.4V216"/>
</g>
<circle style="fill:#EC1C24;" cx="248" cy="248" r="103.2"/>
<path style="fill:#CE0909;" d="M168.8,181.6c35.2-44.8,100-48,144.8-13.6c40,31.2,55.2,100.8,13.6,146.4"/>
<g>
</g>
<g>
</g>
<g>
</g>
<g>
</g>
<g>
</g>
<g>
</g>
<g>
</g>
<g>
</g>
<g>
</g>
<g>
</g>
<g>
</g>
<g>
</g>
<g>
</g>
<g>
</g>
<g>
</g>
</svg>
