<?xml version="1.0"?>
<svg xmlns="http://www.w3.org/2000/svg" xmlns:xlink="http://www.w3.org/1999/xlink" xmlns:svgjs="http://svgjs.com/svgjs" version="1.1" width="512" height="512" x="0" y="0" viewBox="0 0 512.001 512.001" style="enable-background:new 0 0 512 512" xml:space="preserve" class=""><g><g xmlns="http://www.w3.org/2000/svg"><path d="m497.001 482.001h-15.125v-346.5c0-8.284-6.716-15-15-15h-60.25c-8.284 0-15 6.716-15 15v346.5h-30.25v-286.25c0-8.284-6.716-15-15-15h-60.25c-8.284 0-15 6.716-15 15v286.25h-30.25v-226c0-8.284-6.716-15-15-15h-60.25c-8.284 0-15 6.716-15 15v226h-30.25v-165.75c0-8.284-6.716-15-15-15h-60.25c-8.284 0-15 6.716-15 15v165.75h-15.125c-8.284 0-15 6.716-15 15s6.716 15 15 15h482c8.284 0 15-6.716 15-15s-6.716-15-15-15z" fill="#ffe787" data-original="#000000" style="" class=""/><path d="m14.983 210.752c.493 0 .992-.024 1.493-.074 76.631-7.574 148.46-21.938 213.49-42.696 52.234-16.673 100.248-37.492 142.708-61.88 36.106-20.738 62.038-40.508 79.201-55.404v24.553c0 8.284 6.716 15 15 15s15-6.716 15-15v-60.25c0-8.284-6.716-15-15-15h-60.25c-8.284 0-15 6.716-15 15s6.716 15 15 15h23.236c-16.167 13.787-40.426 32.025-73.849 51.071-63.828 36.373-175.058 83.205-342.486 99.751-8.244.815-14.267 8.158-13.452 16.402.765 7.744 7.288 13.527 14.909 13.527z" fill="#ffe787" data-original="#000000" style="" class=""/></g></g></svg>
